<?xml version="1.0" encoding="UTF-8" standalone="no" ?>
<!DOCTYPE svg PUBLIC "-//W3C//DTD SVG 1.1//EN" "http://www.w3.org/Graphics/SVG/1.1/DTD/svg11.dtd">
<svg xmlns="http://www.w3.org/2000/svg" xmlns:xlink="http://www.w3.org/1999/xlink" version="1.1" width="200" height="200" viewBox="0 0 200 200" xml:space="preserve">
<desc>Created with Fabric.js 4.6.0</desc>
<defs>
</defs>
<g transform="matrix(-2.46 0 0 2.39 100 114.88)" id="QYT43fxutSkugEoMSGc5u"  >
<path style="stroke: none; stroke-width: 1; stroke-dasharray: none; stroke-linecap: butt; stroke-dashoffset: 0; stroke-linejoin: miter; stroke-miterlimit: 4; fill: rgb(179,181,179); fill-rule: nonzero; opacity: 1;" vector-effect="non-scaling-stroke"  transform=" translate(-40, -40.01)" d="M 66.7 4.7 L 13.3 4.7 C 6 4.7 0 10.7 0 18 L 0 45.6 C 0 53 6 59 13.3 59 L 47.099999999999994 59 L 64.69999999999999 73.7 C 64.99999999999999 74 66.99999999999999 75.8 68.49999999999999 75.2 C 69.59999999999998 74.7 69.69999999999999 73.5 69.69999999999999 71.4 L 69.69999999999999 58.6 C 75.6 57.2 79.99999999999999 51.9 79.99999999999999 45.6 L 79.99999999999999 18 C 80 10.7 74 4.7 66.7 4.7 z" stroke-linecap="round" />
</g>
<g transform="matrix(-2.46 0 0 2.39 95.83 112.37)" id="cvKNTaGjCOXmIoSeUsCq7"  >
<path style="stroke: none; stroke-width: 1; stroke-dasharray: none; stroke-linecap: butt; stroke-dashoffset: 0; stroke-linejoin: miter; stroke-miterlimit: 4; fill: rgb(255,255,255); fill-rule: nonzero; opacity: 1;" vector-effect="non-scaling-stroke"  transform=" translate(-40, -37.75)" d="M 73.8 18 C 73.8 14 70.6 10.8 66.6 10.8 L 13.3 10.8 C 9.3 10.8 6.1000000000000005 14 6.1000000000000005 18 L 6.1000000000000005 45.6 C 6.1000000000000005 49.6 9.3 52.800000000000004 13.3 52.800000000000004 L 48.2 52.800000000000004 C 48.900000000000006 52.800000000000004 49.6 53.1 50.2 53.50000000000001 L 63.6 64.7 L 63.6 55.900000000000006 C 63.6 54.2 65 52.800000000000004 66.7 52.800000000000004 C 70.7 52.800000000000004 73.9 49.6 73.9 45.6 L 73.9 45.6 L 73.9 18 z" stroke-linecap="round" />
</g>
<g transform="matrix(-2.46 0 0 2.39 100.14 97.09)" id="o-tVRr0cStvVB4sMFTvcB"  >
<path style="stroke: none; stroke-width: 1; stroke-dasharray: none; stroke-linecap: butt; stroke-dashoffset: 0; stroke-linejoin: miter; stroke-miterlimit: 4; fill: rgb(179,181,179); fill-rule: nonzero; opacity: 1;" vector-effect="non-scaling-stroke"  transform=" translate(-39.95, -32.55)" d="M 64.6 38.5 C 64.6 39.6 63.699999999999996 40.6 62.49999999999999 40.6 L 17.4 40.6 C 16.299999999999997 40.6 15.299999999999999 39.7 15.299999999999999 38.5 C 15.299999999999999 37.3 16.2 36.4 17.4 36.4 L 62.5 36.4 C 63.7 36.5 64.6 37.4 64.6 38.5 z M 62.6 24.5 L 17.4 24.5 C 16.299999999999997 24.5 15.299999999999999 25.4 15.299999999999999 26.6 C 15.299999999999999 27.700000000000003 16.2 28.700000000000003 17.4 28.700000000000003 L 62.5 28.700000000000003 C 63.6 28.700000000000003 64.6 27.800000000000004 64.6 26.6 C 64.6 25.4 63.7 24.5 62.6 24.5 z" stroke-linecap="round" />
</g>
<g transform="matrix(1 0 0 1 235.58 28.53)" id="ELlZyG6ux56Oy8Jv4wVbC"  >
<path style="stroke: rgb(0,0,0); stroke-width: 1; stroke-dasharray: none; stroke-linecap: round; stroke-dashoffset: 0; stroke-linejoin: round; stroke-miterlimit: 10; fill: none; fill-rule: nonzero; opacity: 1;" vector-effect="non-scaling-stroke"  transform=" translate(-235.58, -28.53)" d="M 235.5759230769231 28.525641025641022 L 235.5779230769231 28.525641025641022" stroke-linecap="round" />
</g>
</svg>