<?xml version="1.0" encoding="UTF-8" standalone="no" ?>
<!DOCTYPE svg PUBLIC "-//W3C//DTD SVG 1.1//EN" "http://www.w3.org/Graphics/SVG/1.1/DTD/svg11.dtd">
<svg xmlns="http://www.w3.org/2000/svg" xmlns:xlink="http://www.w3.org/1999/xlink" version="1.1" width="500" height="500" viewBox="0 0 500 500" xml:space="preserve">
<desc>Created with Fabric.js 4.6.0</desc>
<defs>
</defs>
<g transform="matrix(1.6 0 0 1.6 250 267.66)" id="BEL7Mbu48w0KGe0DIRMnQ"  >
<path style="stroke: none; stroke-width: 1; stroke-dasharray: none; stroke-linecap: butt; stroke-dashoffset: 0; stroke-linejoin: miter; stroke-miterlimit: 4; fill: rgb(255,255,255); fill-rule: nonzero; opacity: 1;" vector-effect="non-scaling-stroke"  transform=" translate(-248.89, -79.85)" d="M 305.899 20.433 L 330.665 20.433 C 330.74100000000004 20.49 330.81100000000004 20.571 330.894 20.596 C 332.075 20.946 332.899 21.731 333.497 22.764 C 334.21700000000004 24.008 334.822 25.308999999999997 335.18 26.705 C 336.355 31.308 337.515 35.914 338.685 40.516 C 340.284 46.802 341.88 53.086 343.484 59.37 C 343.52599999999995 59.538999999999994 343.601 59.699999999999996 343.716 60.009 C 348.21000000000004 46.756 352.649 33.676 357.082 20.597 L 358.085 20.597 L 381.56 20.596 C 384.177 20.596 386.793 20.589 389.411 20.586 L 389.411 20.735999999999997 C 388.948 21.071999999999996 388.702 21.546999999999997 388.503 22.067999999999998 C 377.726 50.089999999999996 366.94399999999996 78.11 356.163 106.13 C 355.956 106.667 355.73900000000003 107.199 355.52500000000003 107.73599999999999 L 329.97900000000004 107.73599999999999 L 318.41100000000006 56.24199999999999 L 318.25500000000005 56.24099999999999 L 306.96000000000004 107.761 L 281.658 107.761 L 269.228 75.929 L 269.068 75.968 L 269.068 97.07400000000001 C 269.068 98.83500000000001 269.07399999999996 100.59500000000001 269.066 102.35700000000001 C 269.056 104.10700000000001 269.111 105.85700000000001 269.027 107.66900000000001 L 268.133 107.66900000000001 C 264.635 107.66900000000001 261.13599999999997 107.677 257.638 107.66300000000001 C 256.75693925366863 107.66233782837547 255.8763639021502 107.6216291535421 254.99899999999997 107.54100000000001 C 253.21599999999998 107.376 251.54699999999997 106.85200000000002 250.10499999999996 105.748 C 248.44099999999997 104.47500000000001 246.90399999999997 103.045 245.58899999999997 101.421 C 234.91899999999998 88.236 224.27699999999996 75.028 213.62599999999998 61.830000000000005 C 213.46099999999998 61.626000000000005 213.27899999999997 61.434000000000005 213.10599999999997 61.236000000000004 C 213.05599999999995 61.254000000000005 213.00299999999996 61.269000000000005 212.95399999999998 61.288000000000004 L 212.95399999999998 96.126 C 212.95399999999998 98.06400000000001 212.96099999999998 100.004 212.951 101.93900000000001 C 212.941 103.867 212.99599999999998 105.79400000000001 212.916 107.73100000000001 L 189.547 107.73100000000001 L 189.547 102.036 L 189.547 96.374 L 189.547 90.711 L 189.547 85.048 L 189.547 79.385 L 189.547 73.64800000000001 L 189.547 67.986 L 189.547 62.324000000000005 L 189.547 56.661 C 189.547 54.771 189.552 52.886 189.545 50.998000000000005 C 189.53699999999998 49.124 189.57799999999997 47.24700000000001 189.51999999999998 45.36900000000001 L 166.064 45.36900000000001 L 166.064 107.666 C 165.319 107.84 141.87099999999998 107.826 141.22899999999998 107.65299999999999 L 141.22899999999998 45.34 L 119.44599999999998 45.34 C 119.31399999999998 45.067 119.20199999999998 44.844 119.09999999999998 44.617000000000004 L 114.56599999999997 34.330000000000005 C 112.65999999999997 30.005000000000006 110.75399999999998 25.677000000000007 108.83799999999998 21.354000000000006 C 108.73599999999998 21.125000000000007 108.53399999999998 20.936000000000007 108.37999999999998 20.728000000000005 C 108.44199999999998 20.633000000000006 108.23299999999998 20.408000000000005 108.52999999999999 20.424000000000007 C 108.70599999999999 20.433000000000007 108.88299999999998 20.425000000000008 109.05799999999999 20.425000000000008 L 210.159 20.425000000000008 C 210.349 20.473000000000006 210.53699999999998 20.54500000000001 210.73 20.567000000000007 C 212.35999999999999 20.756000000000007 213.79 21.386000000000006 214.94199999999998 22.560000000000006 C 215.5398606986176 23.17095280821916 216.0983179495076 23.819257547440127 216.61399999999998 24.501000000000012 C 220.60799999999998 29.773000000000003 224.58199999999997 35.063 228.57199999999997 40.34100000000001 C 233.56199999999998 46.94500000000001 238.56199999999998 53.53900000000001 243.56099999999998 60.13400000000001 C 243.69899999999998 60.315000000000005 243.78199999999998 60.58100000000001 244.12399999999997 60.62500000000001 L 244.12399999999997 59.90700000000001 L 244.14899999999997 36.20600000000001 C 244.15199999999996 33.84200000000001 244.14699999999996 31.47700000000001 244.16599999999997 29.11200000000001 C 244.17899999999997 27.564000000000007 244.39799999999997 26.05200000000001 245.04099999999997 24.628000000000007 C 245.99299999999997 22.521000000000008 247.57299999999998 21.166000000000007 249.84599999999998 20.645000000000007 C 250.10999999999999 20.584000000000007 250.36799999999997 20.499000000000006 250.62999999999997 20.425000000000008 L 276.60299999999995 20.425000000000008 C 276.71899999999994 20.466000000000008 276.83199999999994 20.532000000000007 276.95099999999996 20.546000000000006 C 278.41999999999996 20.720000000000006 279.611 21.416000000000007 280.60499999999996 22.480000000000008 C 281.47131266091293 23.39838375590933 282.1238832652952 24.496928828801927 282.51599999999996 25.697 C 282.81999999999994 26.630000000000006 283.111 27.563000000000006 283.40599999999995 28.500000000000007 C 286.68699999999995 38.89800000000001 289.96799999999996 49.301 293.25199999999995 59.69900000000001 C 293.32899999999995 59.945000000000014 293.43299999999994 60.183000000000014 293.578 60.56500000000001 C 293.63899999999995 60.31500000000001 293.65999999999997 60.24500000000001 293.67499999999995 60.17000000000001 C 294.24199999999996 56.90200000000001 294.80799999999994 53.632000000000005 295.37699999999995 50.36400000000001 C 296.31999999999994 44.94100000000001 297.26499999999993 39.52000000000001 298.21099999999996 34.09900000000001 C 298.65599999999995 31.54800000000001 299.03299999999996 28.98500000000001 299.57699999999994 26.45300000000001 C 300.2289999999999 23.42800000000001 302.02199999999993 21.385000000000012 305.11299999999994 20.62500000000001 C 305.37499999999994 20.56900000000001 305.6379999999999 20.50000000000001 305.89899999999994 20.43300000000001 z M 307.259 139.278 L 299.613 117.19999999999999 C 299.774 117.14999999999999 299.842 117.112 299.91 117.112 C 301.168 117.10799999999999 302.425 117.109 303.783 117.109 L 309.012 133.332 C 309.744 131.436 310.263 129.64499999999998 310.861 127.886 C 311.465 126.101 312.049 124.309 312.638 122.51899999999999 C 313.22799999999995 120.731 313.81699999999995 118.939 314.416 117.11399999999999 L 317.739 117.11399999999999 C 319.49899999999997 122.43599999999999 321.267 127.78899999999999 323.037 133.13799999999998 L 323.209 133.14299999999997 C 324.93 127.80699999999997 326.648 122.47199999999998 328.365 117.14599999999997 L 332.444 117.14599999999997 L 324.776 139.27999999999997 L 321.454 139.27999999999997 C 321.35 139.02399999999997 321.236 138.77399999999997 321.148 138.515 C 319.54400000000004 133.838 317.94500000000005 129.161 316.34200000000004 124.48599999999999 C 316.259 124.24499999999999 316.16700000000003 124.00599999999999 316.07800000000003 123.764 C 315.86 124.02499999999999 315.77000000000004 124.25399999999999 315.689 124.48599999999999 C 314.18600000000004 128.879 312.684 133.26999999999998 311.177 137.66299999999998 C 310.99 138.206 310.779 138.74099999999999 310.577 139.27999999999997 C 309.475 139.27799999999996 308.366 139.27799999999996 307.259 139.27799999999996 z M 358.756 139.065 L 358.756 117.163 C 358.97099999999995 117.142 359.162 117.107 359.35699999999997 117.107 C 362.452 117.103 365.54499999999996 117.092 368.64 117.11 C 369.979 117.12 371.299 117.296 372.53999999999996 117.845 C 375.39099999999996 119.11 376.602 122.192 375.373 125.024 C 374.988 125.905 374.385 126.592 373.606 127.139 C 373.364 127.31 373.12 127.47699999999999 372.814 127.688 C 373.269 127.901 373.65000000000003 128.073 374.024 128.255 C 376.01800000000003 129.234 377.057 130.804 377.042 133.063 C 377.025 135.338 376.05499999999995 137.01899999999998 374.03499999999997 138.07999999999998 C 372.80556260920423 138.7302225871712 371.43963614796564 139.08009988695156 370.049 139.10099999999997 C 366.37699999999995 139.15299999999996 362.702 139.12899999999996 359.03 139.13099999999997 C 358.96 139.13199999999998 358.88899999999995 139.09999999999997 358.756 139.06499999999997 z M 362.594 135.634 C 365.154 135.634 367.641 135.66199999999998 370.128 135.612 C 370.65799999999996 135.603 371.211 135.375 371.704 135.14499999999998 C 372.75100000000003 134.659 373.202 133.76399999999998 373.18600000000004 132.63699999999997 C 373.17100000000005 131.53299999999996 372.68500000000006 130.67399999999998 371.658 130.24199999999996 C 371.065 129.99199999999996 370.408 129.78899999999996 369.773 129.76599999999996 C 367.51000000000005 129.69499999999996 365.24600000000004 129.70799999999997 362.98100000000005 129.69499999999996 C 362.86300000000006 129.69399999999996 362.74500000000006 129.73999999999995 362.59200000000004 129.76999999999995 C 362.59400000000005 131.72499999999997 362.59400000000005 133.65099999999995 362.59400000000005 135.63399999999996 z M 362.589 126.34599999999999 C 362.737 126.37899999999999 362.81 126.40899999999999 362.882 126.40899999999999 C 364.617 126.41 366.35200000000003 126.428 368.087 126.39699999999999 C 368.918 126.383 369.736 126.23899999999999 370.49399999999997 125.85099999999998 C 371.55899999999997 125.30799999999998 371.986 124.41899999999998 371.94699999999995 123.25699999999999 C 371.90799999999996 122.088 371.3109999999999 121.29299999999999 370.23999999999995 120.92599999999999 C 369.59743495501 120.71272500759187 368.9268265383503 120.59578977111906 368.24999999999994 120.579 C 366.5659999999999 120.53099999999999 364.8809999999999 120.55999999999999 363.19499999999994 120.565 C 363.00399999999996 120.565 362.80999999999995 120.599 362.58899999999994 120.623 L 362.58899999999994 126.346 z M 214.812 117.145 L 218.644 117.145 L 218.644 139.135 C 217.626 139.135 216.631 139.16299999999998 215.637 139.112 C 215.424 139.1 215.191 138.825 215.031 138.62099999999998 C 213.068 136.1 211.116 133.569 209.162 131.04299999999998 C 207.424 128.79299999999998 205.684 126.54499999999997 203.94400000000002 124.29599999999998 C 203.80700000000002 124.11899999999997 203.65900000000002 123.94999999999997 203.519 123.78399999999998 C 203.47 123.80499999999998 203.446 123.81199999999998 203.424 123.82699999999998 C 203.407 123.83999999999999 203.386 123.85699999999999 203.38 123.87699999999998 C 203.3660971796922 123.92481895213737 203.35836779755462 123.97421978579916 203.357 124.02399999999999 C 203.345 129.005 203.335 133.987 203.324 138.968 C 203.324 138.988 203.3 139.00799999999998 203.25300000000001 139.084 L 199.52800000000002 139.084 L 199.52800000000002 117.107 C 200.66700000000003 117.107 201.76700000000002 117.082 202.86300000000003 117.129 C 203.07400000000004 117.14 203.30900000000003 117.42 203.46800000000002 117.626 C 205.401 120.105 207.32000000000002 122.598 209.24300000000002 125.08500000000001 L 214.23000000000002 131.53300000000002 C 214.37800000000001 131.721 214.53900000000002 131.90300000000002 214.811 132.23200000000003 L 214.812 117.14500000000002 z M 167.758 139.055 L 167.758 117.159 L 184.01000000000002 117.159 C 184.067 118.263 184.019 119.381 184.03500000000003 120.601 C 181.94100000000003 120.656 179.88900000000004 120.62 177.84000000000003 120.625 C 175.78400000000002 120.632 173.73000000000002 120.626 171.62700000000004 120.626 L 171.62700000000004 126.256 L 182.48800000000003 126.256 C 182.66100000000003 126.863 182.68700000000004 128.819 182.54300000000003 129.748 L 171.75500000000002 129.748 C 171.54300000000003 130.343 171.50000000000003 134.725 171.68900000000002 135.64399999999998 L 184.13600000000002 135.64399999999998 L 184.13600000000002 139.01099999999997 C 183.62100000000004 139.16799999999998 168.79000000000002 139.21699999999996 167.75800000000004 139.05499999999998 z M 224.99 139.055 L 224.99 117.159 L 241.24200000000002 117.159 C 241.3 118.263 241.251 119.38000000000001 241.26700000000002 120.605 C 239.17300000000003 120.65 237.12100000000004 120.62100000000001 235.07300000000004 120.626 C 233.01700000000002 120.632 230.96300000000002 120.62700000000001 228.85800000000003 120.62700000000001 L 228.85800000000003 126.257 L 239.72000000000003 126.257 C 239.89300000000003 126.863 239.92000000000002 128.81900000000002 239.77200000000002 129.77100000000002 L 228.85700000000003 129.77100000000002 L 228.85700000000003 135.645 L 241.36800000000002 135.645 L 241.36800000000002 139.01100000000002 C 240.854 139.16700000000003 226.026 139.217 224.99 139.05500000000004 z M 337.068 117.133 L 353.233 117.133 C 353.419 117.702 353.303 118.279 353.325 118.84299999999999 C 353.34499999999997 119.39399999999999 353.33 119.94599999999998 353.33 120.60799999999999 C 352.46999999999997 120.61599999999999 351.652 120.62599999999999 350.835 120.62899999999999 C 350.03 120.63199999999999 349.22499999999997 120.62899999999999 348.41999999999996 120.62899999999999 L 341.042 120.62899999999999 C 340.85499999999996 121.189 340.818 125.359 340.991 126.26199999999999 L 351.87399999999997 126.26199999999999 L 351.87399999999997 129.749 L 341.05499999999995 129.749 C 340.85699999999997 130.339 340.81699999999995 134.688 340.99199999999996 135.646 L 353.43199999999996 135.646 L 353.43199999999996 139.015 C 352.91099999999994 139.166 338.03599999999994 139.20999999999998 337.06999999999994 139.05499999999998 C 337.0679999999999 131.77999999999997 337.0679999999999 124.49799999999998 337.0679999999999 117.13299999999998 z M 161.364 139.101 L 157.61700000000002 139.101 L 157.61700000000002 129.944 L 147.04500000000002 129.944 C 147.02400000000003 132.96699999999998 147.048 135.999 147.032 139.083 L 143.318 139.083 C 143.15400000000002 138.571 143.109 118.08 143.281 117.149 L 147.02 117.149 L 147.02 126.229 L 157.57600000000002 126.229 L 157.57600000000002 117.154 L 161.335 117.154 C 161.49 117.689 161.525 138.25 161.364 139.101 z M 265.293 117.141 L 257.634 127.884 C 260.26800000000003 131.601 262.891 135.302 265.57800000000003 139.097 C 265.22400000000005 139.11700000000002 265.007 139.137 264.79100000000005 139.138 C 263.81100000000004 139.142 262.82800000000003 139.107 261.8500000000001 139.15200000000002 C 261.26200000000006 139.17800000000003 260.8970000000001 138.99900000000002 260.5570000000001 138.497 C 258.9790000000001 136.163 257.35800000000006 133.859 255.75000000000009 131.54700000000003 C 255.60700000000008 131.34500000000003 255.4530000000001 131.15100000000004 255.2470000000001 130.87800000000001 C 255.0550000000001 131.143 254.8930000000001 131.35600000000002 254.7400000000001 131.57000000000002 C 253.1140000000001 133.901 251.4800000000001 136.22600000000003 249.8730000000001 138.57000000000002 C 249.5880000000001 138.984 249.2880000000001 139.175 248.7690000000001 139.15200000000002 C 247.79000000000008 139.108 246.80800000000008 139.14200000000002 245.82700000000008 139.138 C 245.6080000000001 139.137 245.3890000000001 139.118 245.02300000000008 139.1 C 247.71700000000007 135.33599999999998 250.34200000000007 131.668 253.00400000000008 127.952 C 250.45800000000008 124.373 247.92700000000008 120.815 245.32900000000006 117.167 C 245.63500000000008 117.14 245.82000000000008 117.108 246.00600000000006 117.107 C 247.08900000000006 117.103 248.17000000000004 117.125 249.25200000000007 117.095 C 249.70400000000006 117.083 249.98100000000008 117.234 250.23600000000008 117.61 C 251.7680000000001 119.853 253.3220000000001 122.082 254.87200000000007 124.31099999999999 C 255.01200000000006 124.51299999999999 255.16600000000008 124.707 255.35100000000008 124.95299999999999 C 255.53500000000008 124.707 255.6850000000001 124.51499999999999 255.82600000000008 124.314 C 257.36800000000005 122.10799999999999 258.9140000000001 119.90499999999999 260.43700000000007 117.68799999999999 C 260.71700000000004 117.28199999999998 261.0060000000001 117.064 261.53800000000007 117.091 C 262.54100000000005 117.139 263.5490000000001 117.104 264.5570000000001 117.106 C 264.74800000000005 117.106 264.9390000000001 117.122 265.29300000000006 117.14099999999999 z M 279.562 120.713 L 279.562 139.084 L 275.644 139.084 C 275.597 137.876 275.62600000000003 136.653 275.623 135.435 C 275.617 134.228 275.623 133.02 275.623 131.814 L 275.623 128.117 L 275.623 124.49499999999999 L 275.623 120.72399999999999 L 268.67199999999997 120.72399999999999 L 268.67199999999997 117.15499999999999 L 286.50199999999995 117.15499999999999 L 286.50199999999995 120.71499999999999 C 284.191 120.713 281.9189999999999 120.713 279.56199999999995 120.713 z M 131.508 139.112 L 127.599 139.112 C 127.593 138.071 127.586 137.04999999999998 127.583 136.029 C 127.581 135.023 127.583 134.017 127.583 133.01 L 127.583 129.915 L 127.583 126.895 L 127.583 123.801 L 127.583 120.739 L 120.75999999999999 120.739 C 120.579 120.147 120.553 117.982 120.70599999999999 117.146 L 138.422 117.146 C 138.44299999999998 117.381 138.471 117.578 138.472 117.771 C 138.478 118.721 138.475 119.671 138.475 120.711 L 131.50799999999998 120.711 L 131.50799999999998 139.112 z" stroke-linecap="round" />
</g>
</svg>